<svg xmlns="http://www.w3.org/2000/svg" viewBox="0 0 64 64" role="img" aria-label="Jess Music">
  <defs>
    <linearGradient id="g" x1="8" y1="7" x2="55" y2="56" gradientUnits="userSpaceOnUse">
      <stop stop-color="#146cff"/><stop offset=".48" stop-color="#2fdcea"/><stop offset="1" stop-color="#b9ef43"/>
    </linearGradient>
  </defs>
  <rect width="64" height="64" rx="15" fill="#070b20"/>
  <path fill="url(#g)" d="M28 9h7v31c0 10-7 17-17 17-7 0-12-4-12-9 0-7 7-11 15-11 3 0 5 0 7 1V9zm-7 35c-5 0-8 2-8 5 0 2 2 3 5 3 6 0 10-4 10-9-2 0-4 0-7 1zM35 10c10 6 17 13 20 22l-6 3c-2-7-7-13-14-17v-8z"/>
</svg>
